Coordinates
version=1
nRows=13
nColumns=63
inDegrees=yes

Units are S.I. units (second, meters, Newtons, ...)
If the header above contains a line with 'inDegrees', this indicates whether rotational values are in degrees (yes) or radians (no).

endheader
time	pelvis_tilt	pelvis_list	pelvis_rotation	pelvis_tx	pelvis_ty	pelvis_tz	hip_flexion_r	hip_adduction_r	hip_rotation_r	knee_angle_r	knee_angle_r_beta	ankle_angle_r	subtalar_angle_r	mtp_angle_r	hip_flexion_l	hip_adduction_l	hip_rotation_l	knee_angle_l	knee_angle_l_beta	ankle_angle_l	subtalar_angle_l	mtp_angle_l	L5_S1_Flex_Ext	L5_S1_Lat_Bending	L5_S1_axial_rotation	L4_L5_Flex_Ext	L4_L5_Lat_Bending	L4_L5_axial_rotation	L3_L4_Flex_Ext	L3_L4_Lat_Bending	L3_L4_axial_rotation	L2_L3_Flex_Ext	L2_L3_Lat_Bending	L2_L3_axial_rotation	L1_L2_Flex_Ext	L1_L2_Lat_Bending	L1_L2_axial_rotation	L1_T12_Flex_Ext	L1_T12_Lat_Bending	L1_T12_axial_rotation	Abs_r3	Abs_r2	Abs_r1	Abs_t1	Abs_t2	neck_flexion	neck_bending	neck_rotation	arm_flex_r	arm_add_r	arm_rot_r	elbow_flex_r	pro_sup_r	wrist_flex_r	wrist_dev_r	arm_flex_l	arm_add_l	arm_rot_l	elbow_flex_l	pro_sup_l	wrist_flex_l	wrist_dev_l
1.333333	-0.571461	-12.486274	94.129901	0.152145	0.464869	1.075310	22.143570	-4.015942	-3.349418	25.674414	0.448103	35.824455	-5.101508	0.000000	16.074091	1.543767	-10.226378	10.483210	0.182967	28.249381	15.671794	0.000000	0.046768	-0.226185	1.084901	0.086854	-0.300827	1.152708	0.076836	-0.549947	1.152708	0.053452	-0.549947	0.949289	0.043429	-0.461237	0.881482	0.026724	-0.350361	0.813676	0.334063	-2.558654	6.033896	0.000000	0.000000	16.804609	2.111656	4.382755	26.014558	8.509401	69.943612	117.392053	73.791088	-1.059847	20.202064	29.127117	6.039383	68.854530	123.241330	83.190203	-1.046372	18.086185
1.351852	-0.681307	-12.491372	93.954462	0.152886	0.464566	1.075961	22.338650	-4.026171	-3.012090	25.771676	0.449801	36.146921	-4.981189	0.000000	16.248593	1.542113	-10.536664	10.757501	0.187754	28.511371	15.842039	0.000000	0.042591	-0.254393	1.185473	0.079096	-0.338342	1.259565	0.069973	-0.618530	1.259565	0.048678	-0.618530	1.037289	0.039550	-0.518757	0.963197	0.024337	-0.394054	0.889105	0.304225	-2.877739	6.593244	0.000000	0.000000	16.847150	2.101389	4.056342	25.868058	8.001952	70.180020	116.611673	73.822039	-1.594034	19.750546	29.208407	5.653739	69.476862	122.759482	83.159749	-1.553906	17.792327
1.370370	-0.803694	-12.498605	93.742414	0.153620	0.464321	1.076356	22.527752	-4.041149	-2.632288	25.845209	0.451084	36.507486	-4.825871	0.000000	16.402406	1.557310	-10.787301	10.975327	0.191556	28.844649	16.023716	0.000000	0.039406	-0.282290	1.264386	0.073180	-0.375445	1.343411	0.064739	-0.686359	1.343411	0.045037	-0.686359	1.106338	0.036592	-0.575645	1.027314	0.022516	-0.437267	0.948290	0.281470	-3.193317	7.032138	0.000000	0.000000	16.894858	2.122655	3.910735	25.782098	7.515292	70.636152	115.706442	73.651841	-1.960177	19.678748	29.075247	5.064981	70.044771	122.142476	82.950564	-1.987407	17.764460
1.388889	-0.908167	-12.504740	93.551885	0.154218	0.464120	1.076496	22.694874	-4.058677	-2.289468	25.894129	0.451938	36.888414	-4.630713	0.000000	16.544019	1.575613	-10.930551	11.165229	0.194870	29.254170	16.203885	0.000000	0.037319	-0.303439	1.306623	0.069305	-0.403574	1.388287	0.061311	-0.737782	1.388287	0.042652	-0.737782	1.143296	0.034654	-0.618773	1.061632	0.021324	-0.470027	0.979968	0.266566	-3.432566	7.267048	0.000000	0.000000	16.930787	2.095946	4.056373	25.783137	7.087436	71.284436	114.769687	73.793612	-2.141690	19.975973	28.738437	4.327688	70.506755	121.472014	82.705468	-2.281395	18.064251
1.407407	-1.016717	-12.502997	93.354293	0.154700	0.463952	1.076345	22.823032	-4.094770	-1.966240	25.907846	0.452177	37.279466	-4.393232	0.000000	16.647877	1.616275	-10.979276	11.303078	0.197276	29.718243	16.353183	0.000000	0.037414	-0.322080	1.320809	0.069482	-0.428366	1.403360	0.061468	-0.783104	1.403360	0.042761	-0.783104	1.155708	0.034743	-0.656785	1.073158	0.021379	-0.498901	0.990607	0.267247	-3.643428	7.345946	0.000000	0.000000	16.915197	2.100584	4.336983	25.890691	6.745688	72.089507	113.894335	74.131188	-2.326138	20.509554	28.256135	3.495699	70.873635	120.774918	82.096439	-2.417226	18.716253
1.425926	-1.100191	-12.466340	93.217594	0.155002	0.463844	1.075912	22.879702	-4.129248	-1.665817	25.904467	0.452118	37.644001	-4.246214	0.000000	16.700803	1.658260	-10.928604	11.418621	0.199293	30.245130	16.515170	0.000000	0.036620	-0.333704	1.299573	0.068007	-0.443826	1.380797	0.060163	-0.811367	1.380797	0.041853	-0.811367	1.137127	0.034005	-0.680489	1.055903	0.020925	-0.516907	0.974680	0.261572	-3.774923	7.227837	0.000000	0.000000	16.798479	2.124805	4.845133	26.095933	6.535769	72.953127	113.159101	74.851842	-2.408649	21.260115	27.711483	2.605368	71.140776	120.119254	81.644301	-2.329429	19.561030
1.444444	-1.182263	-12.389608	93.168351	0.155126	0.463807	1.075169	22.836837	-4.200753	-1.473769	25.865560	0.451439	38.001568	-4.099425	0.000000	16.679585	1.735088	-10.715116	11.479667	0.200358	30.797070	16.628749	0.000000	0.035546	-0.343353	1.247483	0.066013	-0.456660	1.325451	0.058399	-0.834829	1.325451	0.040626	-0.834829	1.091548	0.033008	-0.700166	1.013580	0.020311	-0.531854	0.935612	0.253903	-3.884082	6.938126	0.000000	0.000000	16.538730	2.245046	5.457313	26.380441	6.500535	73.811093	112.628764	75.866742	-2.518561	22.077471	27.173554	1.699680	71.319386	119.554165	80.994309	-2.084420	20.694301
1.462963	-1.268081	-12.266777	93.170770	0.155121	0.463843	1.074084	22.685179	-4.292887	-1.304994	25.781848	0.449978	38.333012	-4.017362	0.000000	16.563839	1.840646	-10.410070	11.469856	0.200187	31.363575	16.719149	0.000000	0.033751	-0.351767	1.169805	0.062679	-0.467850	1.242918	0.055450	-0.855287	1.242918	0.038574	-0.855287	1.023579	0.031341	-0.717324	0.950466	0.019285	-0.544887	0.877354	0.241080	-3.979260	6.506104	0.000000	0.000000	16.129573	2.443862	6.181447	26.746582	6.702959	74.650913	112.371704	77.097108	-2.755863	23.022425	26.604043	0.815204	71.297129	119.149691	80.346972	-1.598669	22.160290
1.481481	-1.357832	-12.108798	93.289111	0.154980	0.463954	1.072745	22.427216	-4.424388	-1.266593	25.653318	0.447735	38.639221	-3.937423	0.000000	16.381874	1.981333	-9.970786	11.418956	0.199298	31.919193	16.782659	0.000000	0.031972	-0.361188	1.066947	0.059375	-0.480381	1.133631	0.052527	-0.878193	1.133631	0.036541	-0.878193	0.933578	0.029689	-0.736535	0.866894	0.018269	-0.559481	0.800210	0.228373	-4.085835	5.934037	0.000000	0.000000	15.570924	2.765687	6.948033	27.121982	7.156179	75.323988	112.330341	78.455728	-2.642978	23.736531	26.113538	-0.045933	71.175893	118.889694	79.499329	-1.159756	23.477276
1.500000	-1.455659	-11.918327	93.507946	0.154705	0.464133	1.071165	22.070040	-4.591075	-1.309879	25.492433	0.444927	38.907975	-3.904403	0.000000	16.131491	2.154550	-9.450363	11.331100	0.197765	32.444374	16.843148	0.000000	0.028352	-0.372053	0.946037	0.052653	-0.494831	1.005164	0.046580	-0.904610	1.005164	0.032404	-0.904610	0.827782	0.026328	-0.758691	0.768655	0.016200	-0.576310	0.709527	0.202517	-4.208739	5.261571	0.000000	0.000000	14.906790	3.207991	7.767050	27.446551	7.847306	75.852049	112.562458	79.673469	-2.431652	24.496209	25.642398	-0.805313	70.824840	118.843078	78.684233	-0.649728	24.911737
1.518519	-1.540509	-11.706610	93.858022	0.154239	0.464358	1.069398	21.619847	-4.783210	-1.504602	25.288701	0.441371	39.132881	-3.871373	0.000000	15.827607	2.349067	-8.805882	11.201766	0.195508	32.917910	16.860004	0.000000	0.023955	-0.382326	0.816027	0.044488	-0.508494	0.867028	0.039356	-0.929588	0.867028	0.027379	-0.929588	0.714023	0.022245	-0.779640	0.663022	0.013688	-0.592223	0.612020	0.171111	-4.324950	4.538495	0.000000	0.000000	14.160949	3.699734	8.529925	27.593609	8.690854	76.178762	112.995017	80.758632	-1.992226	24.971516	25.220894	-1.404727	70.343662	118.969918	77.928219	-0.276583	25.983239
1.537037	-1.570792	-11.486162	94.342938	0.153538	0.464581	1.067529	21.096881	-4.967828	-1.896486	25.040501	0.437039	39.320359	-3.777536	0.000000	15.506690	2.522506	-8.053647	11.067710	0.193168	33.341600	16.839060	0.000000	0.019950	-0.386389	0.693263	0.037049	-0.513898	0.736592	0.032776	-0.939467	0.736592	0.022801	-0.939467	0.606605	0.018526	-0.787925	0.563276	0.011399	-0.598517	0.519947	0.142501	-4.370912	3.855720	0.000000	0.000000	13.395670	4.137047	9.162780	27.456653	9.573623	76.266739	113.588542	81.683022	-1.400166	24.989172	24.876417	-1.768640	69.822883	119.250507	76.599714	-0.088573	26.552729
1.555556	-1.564614	-11.272325	94.939589	0.152597	0.464771	1.065639	20.531442	-5.158202	-2.439584	24.771969	0.432352	39.464078	-3.675223	0.000000	15.179716	2.690726	-7.237294	10.926488	0.190703	33.692762	16.796410	0.000000	0.016497	-0.385516	0.584992	0.030637	-0.512737	0.621554	0.027103	-0.937344	0.621554	0.018854	-0.937344	0.511868	0.015319	-0.786145	0.475306	0.009426	-0.597165	0.438744	0.117836	-4.361038	3.253553	0.000000	0.000000	12.637587	4.512172	9.725307	27.042313	10.414368	76.148114	114.280591	82.493799	-0.874617	24.435524	24.574367	-1.863967	69.266859	119.717817	74.783798	-0.142269	26.777850
